<?xml version="1.0" encoding="UTF-8" standalone="no"?>
<svg
   xmlns:dc="http://purl.org/dc/elements/1.1/"
   xmlns:cc="http://creativecommons.org/ns#"
   xmlns:rdf="http://www.w3.org/1999/02/22-rdf-syntax-ns#"
   xmlns:svg="http://www.w3.org/2000/svg"
   xmlns="http://www.w3.org/2000/svg"
   xmlns:xlink="http://www.w3.org/1999/xlink"
   xmlns:sodipodi="http://sodipodi.sourceforge.net/DTD/sodipodi-0.dtd"
   xmlns:inkscape="http://www.inkscape.org/namespaces/inkscape"
   width="22"
   height="22"
   viewBox="0 0 22 22"
   version="1.1"
   id="svg81"
   sodipodi:docname="drive-harddisk.svg"
   inkscape:version="1.0.1 (3bc2e813f5, 2020-09-07)">
  <metadata
     id="metadata85">
    <rdf:RDF>
      <cc:Work
         rdf:about="">
        <dc:format>image/svg+xml</dc:format>
        <dc:type
           rdf:resource="http://purl.org/dc/dcmitype/StillImage" />
      </cc:Work>
    </rdf:RDF>
  </metadata>
  <sodipodi:namedview
     pagecolor="#ffffff"
     bordercolor="#666666"
     borderopacity="1"
     objecttolerance="10"
     gridtolerance="10"
     guidetolerance="10"
     inkscape:pageopacity="0"
     inkscape:pageshadow="2"
     inkscape:window-width="1920"
     inkscape:window-height="995"
     id="namedview83"
     showgrid="false"
     inkscape:zoom="37.545455"
     inkscape:cx="11.039952"
     inkscape:cy="11"
     inkscape:window-x="0"
     inkscape:window-y="0"
     inkscape:window-maximized="1"
     inkscape:current-layer="svg81" />
  <defs
     id="defs63">
    <linearGradient
       id="drive-harddisk-b"
       x1="100%"
       x2="0%"
       y1="56.43%"
       y2="56.43%">
      <stop
         offset="0%"
         stop-color="#FFF"
         stop-opacity=".5"
         id="stop15" />
      <stop
         offset="9.936%"
         stop-color="#FFF"
         stop-opacity=".9"
         id="stop17" />
      <stop
         offset="52.356%"
         stop-color="#FFF"
         stop-opacity=".7"
         id="stop19" />
      <stop
         offset="87.648%"
         stop-color="#FFF"
         stop-opacity=".9"
         id="stop21" />
      <stop
         offset="100%"
         stop-color="#FFF"
         stop-opacity=".5"
         id="stop23" />
    </linearGradient>
    <path
       id="drive-harddisk-c"
       d="M4,17 C4,15.8954305 4.89706013,15 6.00585866,15 L15.9941413,15 C17.1019465,15 18,15.8877296 18,17 L18,18.5095215 C18,18.7804053 17.7815437,19 17.5013916,19 L10.3312805,19 C10.0559067,19 9.61114676,19 9.33538177,19 L4.49729034,19 C4.22264447,19 4,18.7849426 4,18.5095215 L4,17 Z" />
    <filter
       id="drive-harddisk-d"
       width="107.1%"
       height="125%"
       x="-3.6%"
       y="-12.5%"
       filterUnits="objectBoundingBox">
      <feMorphology
         in="SourceAlpha"
         radius="1"
         result="shadowSpreadInner1"
         id="feMorphology27" />
      <feOffset
         in="shadowSpreadInner1"
         result="shadowOffsetInner1"
         id="feOffset29" />
      <feComposite
         in="shadowOffsetInner1"
         in2="SourceAlpha"
         k2="-1"
         k3="1"
         operator="arithmetic"
         result="shadowInnerInner1"
         id="feComposite31" />
      <feColorMatrix
         in="shadowInnerInner1"
         values="0 0 0 0 1   0 0 0 0 1   0 0 0 0 1  0 0 0 0.5 0"
         id="feColorMatrix33" />
    </filter>
    <radialGradient
       id="drive-harddisk-e"
       cx="48.239%"
       cy="19.103%"
       r="78.654%"
       fx="48.239%"
       fy="19.103%"
       gradientTransform="matrix(0 1 -.7673 0 .629 -.291)">
      <stop
         offset="0%"
         stop-color="#7CFFFE"
         id="stop36" />
      <stop
         offset="100%"
         stop-color="#D6CDE6"
         id="stop38" />
    </radialGradient>
    <path
       id="drive-harddisk-f"
       d="M4,18.5 C4,17.6715729 4.6752491,17 5.49824524,17 L16.5017548,17.0000001 C17.3292128,17.0000001 18,17.6657973 18,18.5000001 L18,18.5000001 C18,19.3284272 17.3247509,20.0000001 16.5017548,20.0000001 L5.49824524,20.0000001 C4.67078724,20.0000001 4,19.3342028 4,18.5 L4,18.5 Z" />
    <filter
       id="drive-harddisk-g"
       width="107.1%"
       height="133.3%"
       x="-3.6%"
       y="-16.7%"
       filterUnits="objectBoundingBox">
      <feMorphology
         in="SourceAlpha"
         radius="1"
         result="shadowSpreadInner1"
         id="feMorphology42" />
      <feOffset
         in="shadowSpreadInner1"
         result="shadowOffsetInner1"
         id="feOffset44" />
      <feComposite
         in="shadowOffsetInner1"
         in2="SourceAlpha"
         k2="-1"
         k3="1"
         operator="arithmetic"
         result="shadowInnerInner1"
         id="feComposite46" />
      <feColorMatrix
         in="shadowInnerInner1"
         values="0 0 0 0 0   0 0 0 0 0.239215686   0 0 0 0 0.611764706  0 0 0 0.2 0"
         id="feColorMatrix48" />
    </filter>
  </defs>
  <g
     fill="none"
     fill-rule="evenodd"
     id="g79">
    <path
       fill="url(#drive-harddisk-a)"
       d="M4,3.99406028 C4,2.8927712 4.89706016,2 6.00585873,2 L15.9941417,2 C17.1019469,2 18.0000004,2.89451376 18.0000004,3.99406028 L18,18 L4,18 L4,3.99406028 Z"
       id="path65"
       style="fill:#29e7e1;fill-opacity:0.71520662" />
    <use
       fill="url(#drive-harddisk-b)"
       xlink:href="#drive-harddisk-c"
       id="use67" />
    <use
       fill="#000"
       filter="url(#drive-harddisk-d)"
       xlink:href="#drive-harddisk-c"
       id="use69" />
    <use
       fill="url(#drive-harddisk-e)"
       xlink:href="#drive-harddisk-f"
       id="use71" />
    <use
       fill="#000"
       filter="url(#drive-harddisk-g)"
       xlink:href="#drive-harddisk-f"
       id="use73" />
    <path
       fill="url(#drive-harddisk-h)"
       d="M17,18 L17,19 L16,19 L16,18 L17,18 Z M15,18 L15,19 L14,19 L14,18 L15,18 Z M13,18 L13,19 L12,19 L12,18 L13,18 Z M11,18 L11,19 L10,19 L10,18 L11,18 Z"
       id="path75"
       style="fill:#0174ff;fill-opacity:1" />
    <path
       fill="url(#drive-harddisk-i)"
       d="M5.5,19 C5.77614237,19 6,18.7761424 6,18.5 C6,18.2238576 5.77614237,18 5.5,18 C5.22385763,18 5,18.2238576 5,18.5 C5,18.7761424 5.22385763,19 5.5,19 Z"
       id="path77"
       style="fill:#7cff58;fill-opacity:1" />
  </g>
</svg>
