<?xml version="1.0" encoding="UTF-8" standalone="no"?>
<svg
   xmlns:dc="http://purl.org/dc/elements/1.1/"
   xmlns:cc="http://creativecommons.org/ns#"
   xmlns:rdf="http://www.w3.org/1999/02/22-rdf-syntax-ns#"
   xmlns:svg="http://www.w3.org/2000/svg"
   xmlns="http://www.w3.org/2000/svg"
   xmlns:sodipodi="http://sodipodi.sourceforge.net/DTD/sodipodi-0.dtd"
   xmlns:inkscape="http://www.inkscape.org/namespaces/inkscape"
   width="16"
   height="16"
   viewBox="0 0 16 16"
   version="1.1"
   id="svg15"
   sodipodi:docname="deepin-terminal.svg"
   inkscape:version="1.0.1 (3bc2e813f5, 2020-09-07)">
  <metadata
     id="metadata19">
    <rdf:RDF>
      <cc:Work
         rdf:about="">
        <dc:format>image/svg+xml</dc:format>
        <dc:type
           rdf:resource="http://purl.org/dc/dcmitype/StillImage" />
      </cc:Work>
    </rdf:RDF>
  </metadata>
  <sodipodi:namedview
     pagecolor="#ffffff"
     bordercolor="#666666"
     borderopacity="1"
     objecttolerance="10"
     gridtolerance="10"
     guidetolerance="10"
     inkscape:pageopacity="0"
     inkscape:pageshadow="2"
     inkscape:window-width="1920"
     inkscape:window-height="995"
     id="namedview17"
     showgrid="false"
     inkscape:zoom="51.625"
     inkscape:cx="8.0290557"
     inkscape:cy="8"
     inkscape:window-x="0"
     inkscape:window-y="0"
     inkscape:window-maximized="1"
     inkscape:current-layer="svg15"
     inkscape:lockguides="false" />
  <defs
     id="defs7" />
  <g
     fill="none"
     fill-rule="evenodd"
     transform="translate(1 2)"
     id="g13">
    <rect
       width="14"
       height="12"
       fill="url(#deepin-terminal-a)"
       rx="1.867"
       id="rect9"
       style="fill:#ff5f5f;fill-opacity:1" />
    <path
       fill="#FFF"
       fill-rule="nonzero"
       d="M10.5000669,8.00006693 C10.7762093,8.00006693 11.0000669,7.7762093 11.0000669,7.50006693 C11.0000669,7.22392455 10.7762093,7.00006693 10.5000669,7.00006693 L6.00006693,7.00006693 C5.72392455,7.00006693 5.50006693,7.22392455 5.50006693,7.50006693 C5.50006693,7.7762093 5.72392455,8.00006693 6.00006693,8.00006693 L10.5000669,8.00006693 Z M4.56629491,3.99405062 L2.23506746,5.07606778 C2.00089919,5.22242294 1.92971261,5.53089813 2.07606778,5.7650664 C2.22242294,5.99923466 2.53089813,6.07042125 2.7650664,5.92406608 L5.7650664,4.42406608 C6.07840044,4.2282323 6.07840044,3.77190155 5.7650664,3.57606778 L2.7650664,2.07606778 C2.53089813,1.92971261 2.22242294,2.00089919 2.07606778,2.23506746 C1.92971261,2.46923572 2.00089919,2.77771091 2.23506746,2.92406608 L4.56629491,3.99405062 Z"
       id="path11" />
  </g>
</svg>
